#!OML:ASF F:\VICON\USERDATA\INSTALL\rory3\rory3.ASF
:FULLY-SPECIFIED
:DEGREES
223
root 0.929134 17.6389 10.0488 -1.85762 2.70537 3.49513
lowerback 6.87738 -1.53021 -6.28604
upperback 0.581737 -2.46343 1.68171
thorax -2.91481 -1.14216 5.51328
lowerneck -16.3686 -2.78877 -1.31002
upperneck 17.8841 -3.59969 0.422191
head 8.28625 -1.74998 -0.0696283
rclavicle -1.02623e-014 -3.18055e-015
rhumerus -35.2657 -14.4205 -78.5319
rradius 29.3366
rwrist 3.18869
rhand -13.217 20.3042
rfingers 7.12502
rthumb 12.884 -9.27807
lclavicle -1.02623e-014 -3.18055e-015
lhumerus -29.9572 -6.13157 80.3012
lradius 38.1914
lwrist 4.93263
lhand -22.4829 32.4756
lfingers 7.12502
lthumb 3.94247 62.4189
rfemur -30.069 4.62891 16.8732
rtibia 20.608
rfoot -10.1519 -10.5841
rtoes -13.9033
lfemur 15.2618 -3.59988 -28.1748
ltibia 18.2842
lfoot -19.5441 -0.994976
ltoes -20.5269
224
root 0.907491 17.6314 10.2545 -1.93045 2.97004 3.62171
lowerback 6.76127 -1.64775 -6.45995
upperback 0.574431 -2.62669 1.66289
thorax -2.8276 -1.22483 5.60011
lowerneck -16.512 -2.75587 -1.31485
upperneck 18.1205 -3.54497 0.377875
head 8.3902 -1.72771 -0.0813057
rclavicle 4.94477e-015 -1.03368e-014
rhumerus -35.2842 -14.9194 -78.2319
rradius 28.5856
rwrist 3.67232
rhand -13.4178 22.6032
rfingers 7.12502
rthumb 12.6905 -6.99122
lclavicle 4.94477e-015 -1.03368e-014
lhumerus -30.2487 -6.0738 80.3694
lradius 38.0804
lwrist 4.99523
lhand -22.3017 32.9277
lfingers 7.12502
lthumb 4.11742 62.8676
rfemur -30.0403 4.42237 16.9598
rtibia 22.0452
rfoot -10.0728 -9.91577
rtoes -13.7899
lfemur 16.0432 -3.90472 -28.2799
ltibia 18.4121
lfoot -19.0993 -1.12701
ltoes -22.764
225
root 0.887036 17.6311 10.4658 -1.94071 3.20471 3.81308
lowerback 6.6391 -1.73107 -6.70129
upperback 0.431845 -2.75187 1.65105
thorax -2.87941 -1.27835 5.73267
lowerneck -16.34 -2.81685 -1.4351
upperneck 18.2202 -3.60055 0.368041
head 8.39587 -1.76403 -0.0699727
rclavicle 2.15433e-014 -1.27222e-014
rhumerus -35.7687 -15.1873 -77.8654
rradius 28.5143
rwrist 3.98696
rhand -13.4539 23.2131
rfingers 7.12502
rthumb 12.6556 -6.38348
lclavicle 2.15433e-014 -1.27222e-014
lhumerus -30.7787 -6.03686 80.5853
lradius 37.9722
lwrist 4.90564
lhand -22.7522 33.613
lfingers 7.12502
lthumb 3.68238 63.5609
rfemur -29.9824 4.06695 17.0405
rtibia 23.3267
rfoot -9.97543 -9.19506
rtoes -13.1203
lfemur 16.5993 -4.14827 -28.4289
ltibia 18.7226
lfoot -18.6222 -1.46375
ltoes -23.4958
226
root 0.861146 17.647 10.6781 -2.00449 3.38946 3.51203
lowerback 6.54291 -1.79248 -6.50905
upperback 0.371803 -2.81128 1.75767
thorax -2.88308 -1.30821 5.73758
lowerneck -16.185 -2.89918 -1.37163
upperneck 18.2594 -3.70597 0.238241
head 8.37836 -1.8237 -0.134396
rclavicle 8.4235e-015 -3.18055e-015
rhumerus -36.053 -15.4225 -77.6575
rradius 28.4941
rwrist 4.04281
rhand -13.3279 22.7519
rfingers 7.12502
rthumb 12.7771 -6.8371
lclavicle 8.4235e-015 -3.18055e-015
lhumerus -30.9896 -6.02909 80.7433
lradius 37.6744
lwrist 4.69048
lhand -23.0972 32.9757
lfingers 7.12502
lthumb 3.34923 62.9291
rfemur -29.8381 4.16257 17.5169
rtibia 24.3729
rfoot -8.87467 -9.0336
rtoes -13.1219
lfemur 17.1808 -4.44842 -28.026
ltibia 19.1991
lfoot -18.0603 -1.66191
ltoes -24.6069
227
root 0.83054 17.6657 10.8794 -2.05326 3.5043 2.84543
lowerback 6.57996 -1.84361 -5.93963
upperback 0.309733 -2.83497 1.93815
thorax -2.98299 -1.32112 5.60993
lowerneck -16.2635 -2.93544 -1.22421
upperneck 18.4653 -3.76739 0.108537
head 8.45655 -1.85507 -0.21257
rclavicle 1.91082e-014 -4.77083e-015
rhumerus -36.2131 -15.5859 -77.5627
rradius 28.3436
rwrist 4.05557
rhand -13.3429 22.4596
rfingers 7.12502
rthumb 12.7627 -7.13037
lclavicle 1.91082e-014 -4.77083e-015
lhumerus -31.1098 -6.01998 80.8767
lradius 37.2739
lwrist 4.63151
lhand -23.4245 31.9968
lfingers 7.12502
lthumb 3.03319 61.9549
rfemur -29.7531 4.5256 18.2936
rtibia 25.1529
rfoot -7.30468 -9.33076
rtoes -13.4644
lfemur 17.6997 -4.80285 -27.2095
ltibia 19.7998
lfoot -17.3546 -1.47274
ltoes -29.2438
228
root 0.808014 17.6915 11.0779 -2.10492 3.63928 2.19905
lowerback 6.64732 -1.91401 -5.26671
upperback 0.26268 -2.87686 2.10818
thorax -3.08763 -1.34543 5.41495
lowerneck -16.5583 -2.92073 -1.26191
upperneck 18.7601 -3.75346 0.185624
head 8.61174 -1.84068 -0.186575
rclavicle -5.34234e-015 -5.56597e-015
rhumerus -36.4179 -16.1682 -77.282
rradius 28.1128
rwrist 4.70105
rhand -13.7742 22.6684
rfingers 7.12502
rthumb 12.3468 -6.94706
lclavicle -5.34234e-015 -5.56597e-015
lhumerus -31.1423 -5.85334 81.0644
lradius 36.634
lwrist 4.61941
lhand -23.8605 31.129
lfingers 7.12502
lthumb 2.61209 61.0927
rfemur -29.5383 4.45181 19.1344
rtibia 25.7204
rfoot -6.21615 -9.27089
rtoes -12.8664
lfemur 17.7351 -5.43427 -26.5701
ltibia 20.7758
lfoot -16.6263 -0.940923
ltoes -33.6431
229
root 0.79666 17.7287 11.2787 -2.2304 3.67242 1.75429
lowerback 6.63224 -1.9823 -4.74258
upperback 0.283477 -2.92262 2.24648
thorax -3.07002 -1.376 5.26508
lowerneck -16.631 -2.84048 -1.24545
upperneck 18.8192 -3.63538 0.134531
head 8.6427 -1.78892 -0.193729
rclavicle 3.73342e-014 7.95139e-016
rhumerus -36.4555 -16.5057 -77.0102
rradius 27.8022
rwrist 4.97722
rhand -13.9639 22.6076
rfingers 7.12502
rthumb 12.1639 -7.01878
lclavicle 3.73342e-014 7.95139e-016
lhumerus -31.3109 -5.32201 81.1924
lradius 36.2427
lwrist 4.16521
lhand -24.7705 31.1126
lfingers 7.12502
lthumb 1.73323 61.0853
rfemur -29.1517 4.155 19.8024
rtibia 26.2219
rfoot -4.88664 -8.50597
rtoes -13.5904
lfemur 17.2638 -6.0449 -26.248
ltibia 22.1712
lfoot -15.0894 -2.801
ltoes -30.7246
230
root 0.78568 17.7455 11.4828 -2.34828 3.40296 1.33226
lowerback 6.52052 -1.93466 -4.2673
upperback 0.261197 -2.81479 2.3825
thorax -3.05966 -1.32804 5.12489
lowerneck -16.3456 -2.80099 -1.26423
upperneck 18.7827 -3.57214 0.0981901
head 8.57825 -1.76583 -0.19039
rclavicle 2.37672e-014 -1.43125e-014
rhumerus -36.7758 -16.6026 -76.7828
rradius 27.8478
rwrist 4.92435
rhand -14.0021 22.2052
rfingers 7.12502
rthumb 12.127 -7.42331
lclavicle 2.37672e-014 -1.43125e-014
lhumerus -31.6579 -4.98126 81.3635
lradius 36.0769
lwrist 3.77109
lhand -24.8859 31.2679
lfingers 7.12502
lthumb 1.62178 61.2415
rfemur -28.8093 4.07075 20.4654
rtibia 26.7239
rfoot -3.05588 -7.40394
rtoes -15.706
lfemur 16.7636 -6.11259 -25.8296
ltibia 23.8914
lfoot -13.6517 -4.26477
ltoes -29.4481
231
root 0.767839 17.757 11.6845 -2.49335 3.11725 0.987202
lowerback 6.61792 -1.84354 -3.97313
upperback 0.175356 -2.67037 2.51365
thorax -3.22763 -1.25265 5.09141
lowerneck -16.2114 -2.85406 -1.31864
upperneck 18.9198 -3.62647 0.0565739
head 8.60133 -1.80012 -0.201343
rclavicle 1.66482e-015 1.59028e-015
rhumerus -37.2321 -16.7432 -76.4479
rradius 27.8748
rwrist 4.94729
rhand -13.7362 22.2357
rfingers 7.12502
rthumb 12.3835 -7.37747
lclavicle 1.66482e-015 1.59028e-015
lhumerus -31.9007 -4.73471 81.56
lradius 35.646
lwrist 3.5575
lhand -23.7002 30.4739
lfingers 7.12502
lthumb 2.7669 60.4357
rfemur -28.3831 3.91292 21.1071
rtibia 27.2595
rfoot -2.36165 -6.65741
rtoes -14.4303
lfemur 16.1377 -5.88489 -25.3409
ltibia 25.8656
lfoot -12.2245 -5.46646
ltoes -30.0845
232
root 0.74735 17.7781 11.8838 -2.71814 2.98316 0.512822
lowerback 6.87054 -1.78591 -3.47109
upperback 0.0895741 -2.55719 2.63354
thorax -3.48779 -1.19412 4.93726
lowerneck -16.2229 -2.96728 -1.34584
upperneck 19.2036 -3.75212 -0.0676233
head 8.69882 -1.87394 -0.257156
rclavicle 4.95098e-015 -1.27222e-014
rhumerus -37.4324 -17.1131 -76.1379
rradius 27.4696
rwrist 4.8319
rhand -13.221 21.6325
rfingers 7.12502
rthumb 12.8801 -7.9501
lclavicle 4.95098e-015 -1.27222e-014
lhumerus -32.1748 -4.38848 81.6901
lradius 35.0582
lwrist 3.38138
lhand -23.0587 29.9791
lfingers 7.12502
lthumb 3.38638 59.932
rfemur -27.948 3.56443 21.9167
rtibia 28.065
rfoot -3.2948 -6.14493
rtoes -8.80122
lfemur 15.2809 -5.74979 -24.6595
ltibia 28.0619
lfoot -10.2689 -6.97658
ltoes -29.6889
233
root 0.728407 17.801 12.0897 -3.00262 2.86343 0.226217
lowerback 6.89129 -1.75329 -3.15761
upperback 0.266229 -2.48783 2.67968
thorax -3.33445 -1.17159 4.79716
lowerneck -16.5456 -2.99571 -1.38944
upperneck 19.3467 -3.80643 0.068037
head 8.81019 -1.88614 -0.217754
rclavicle 5.62436e-014 -2.14687e-014
rhumerus -37.1322 -17.4892 -76.1368
rradius 27.0711
rwrist 4.52026
rhand -12.8375 20.5854
rfingers 7.12502
rthumb 13.2498 -8.97352
lclavicle 5.62436e-014 -2.14687e-014
lhumerus -32.1595 -3.99179 81.7167
lradius 34.5416
lwrist 3.39937
lhand -22.7291 30.3549
lfingers 7.12502
lthumb 3.70468 60.3024
rfemur -27.4562 3.09298 22.5378
rtibia 28.9888
rfoot -3.02095 -5.00876
rtoes -9.47557
lfemur 14.5062 -5.66061 -24.1818
ltibia 30.3176
lfoot -7.72693 -8.69594
ltoes -27.2629
234
root 0.712262 17.7872 12.2951 -3.15679 2.80214 0.230991
lowerback 6.75614 -1.73877 -3.15964
upperback 0.423001 -2.46629 2.6799
thorax -3.09808 -1.16982 4.78587
lowerneck -16.782 -2.96911 -1.38328
upperneck 19.2345 -3.78371 0.149121
head 8.81594 -1.86532 -0.191209
rclavicle 4.16702e-014 -5.48646e-014
rhumerus -36.8732 -18.1914 -75.8576
rradius 26.6063
rwrist 5.15152
rhand -12.8319 20.253
rfingers 7.12502
rthumb 13.2552 -9.30553
lclavicle 4.16702e-014 -5.48646e-014
lhumerus -32.2122 -3.54751 81.7594
lradius 34.2545
lwrist 3.2221
lhand -22.4933 30.7743
lfingers 7.12502
lthumb 3.93242 60.7178
rfemur -27.1832 2.54266 22.7905
rtibia 29.9643
rfoot -4.45434 -4.31058
rtoes -6.64639
lfemur 14.5101 -5.64556 -23.9691
ltibia 32.6052
lfoot -6.42956 -9.64931
ltoes -28.847
235
root 0.692196 17.7878 12.4951 -3.37838 2.84649 0.0620953
lowerback 6.97029 -1.76403 -3.06603
upperback 0.398139 -2.49469 2.74579
thorax -3.24191 -1.18073 4.81468
lowerneck -16.7563 -2.92336 -1.30321
upperneck 19.217 -3.72364 0.0671699
head 8.80141 -1.8404 -0.223965
rclavicle 1.15544e-015 4.77083e-015
rhumerus -36.9729 -18.8811 -75.3231
rradius 26.0815
rwrist 6.18261
rhand -12.6374 20.32
rfingers 7.12502
rthumb 13.4427 -9.22625
lclavicle 1.15544e-015 4.77083e-015
lhumerus -32.6022 -2.93216 81.7717
lradius 34.0003
lwrist 2.91079
lhand -23.4548 27.9023
lfingers 7.12502
lthumb 3.00388 57.8609
rfemur -26.7674 2.26737 23.1568
rtibia 30.9218
rfoot -4.2793 -3.8475
rtoes -7.52723
lfemur 14.0123 -5.34277 -23.4128
ltibia 34.9412
lfoot -4.62965 -11.1762
ltoes -31.3128
236
root 0.668951 17.8005 12.6803 -3.54025 2.80233 -0.268416
lowerback 7.34654 -1.72026 -2.73669
upperback 0.234975 -2.41266 2.80651
thorax -3.64183 -1.13154 4.70606
lowerneck -16.2908 -2.9604 -1.33174
upperneck 19.0352 -3.78088 0.102871
head 8.65714 -1.86827 -0.204882
rclavicle 3.96886e-014 -2.46493e-014
rhumerus -37.4353 -18.8603 -75.1403
rradius 26.0839
rwrist 6.093
rhand -12.5132 20.2666
rfingers 7.12502
rthumb 13.5624 -9.2717
lclavicle 3.96886e-014 -2.46493e-014
lhumerus -33.0984 -2.5152 81.8074
lradius 33.6682
lwrist 2.74057
lhand -27.1921 19.7225
lfingers 7.12502
lthumb -0.605599 49.7013
rfemur -26.3569 2.40905 23.675
rtibia 31.8065
rfoot -4.53247 -3.8927
rtoes -6.58001
lfemur 12.8996 -5.06858 -22.6626
ltibia 37.4193
lfoot -1.71776 -13.0671
ltoes -30.1381
237
root 0.647755 17.8111 12.8612 -3.67074 2.8347 -0.67338
lowerback 7.53363 -1.69865 -2.23744
upperback 0.185124 -2.34089 2.85229
thorax -3.82366 -1.09893 4.47382
lowerneck -15.9132 -2.99878 -1.50168
upperneck 18.7399 -3.84253 0.330094
head 8.49795 -1.88803 -0.0990737
rclavicle 6.7711e-015 -5.56597e-015
rhumerus -37.605 -19.1197 -75.0429
rradius 25.993
rwrist 6.19814
rhand -12.5401 20.0221
rfingers 7.12502
rthumb 13.5365 -9.51793
lclavicle 6.7711e-015 -5.56597e-015
lhumerus -33.6006 -2.39856 81.8982
lradius 33.6829
lwrist 2.54455
lhand -29.5584 13.7465
lfingers 7.12502
lthumb -2.89096 43.7067
rfemur -25.8148 2.42344 24.2831
rtibia 32.2712
rfoot -4.95585 -3.87836
rtoes -4.72187
lfemur 11.6064 -4.94253 -21.8652
ltibia 39.8979
lfoot 1.46019 -14.9282
ltoes -29.5371
